<svg width="2496" height="2496" viewBox="0 0 2496 2496" fill="none" xmlns="http://www.w3.org/2000/svg"><path fill-rule="evenodd" clip-rule="evenodd" d="M2303.2 2496H192.735C167.424 2496 142.361 2491.01 118.978 2481.33C95.5937 2471.64 74.3466 2457.44 56.4495 2439.55C38.5524 2421.65 24.3558 2400.4 14.6702 2377.02C4.98455 2353.63 -0.000393945 2328.57 2.33502e-08 2303.26V192.741C-0.000393945 167.43 4.98455 142.367 14.6702 118.983C24.3558 95.5989 38.5524 74.3515 56.4495 56.4538C74.3466 38.5561 95.5937 24.3588 118.978 14.6725C142.361 4.98611 167.424 0.000393963 192.735 0H2303.2C2354.31 -6.19195e-09 2403.34 20.3065 2439.49 56.4523C2475.63 92.5982 2495.94 141.623 2495.94 192.741V2303.26C2495.94 2354.38 2475.63 2403.4 2439.49 2439.55C2403.34 2475.69 2354.31 2496 2303.2 2496V2496Z" fill="#0E5394"></path><path fill-rule="evenodd" clip-rule="evenodd" d="M1529.89 595.935C1529.7 614.115 1523.09 631.645 1511.24 645.43C1499.38 659.216 1483.04 668.372 1465.1 671.284C1447.15 674.196 1428.75 670.676 1413.15 661.346C1397.54 652.015 1385.73 637.474 1379.8 620.286C1367.7 597.837 1349.73 579.09 1327.81 566.042C1305.89 552.994 1280.85 546.132 1255.34 546.186C1177.44 546.186 1114.28 608.634 1114.28 685.686C1114.28 762.738 1177.44 825.168 1255.34 825.168C1281.62 825.16 1307.35 817.728 1329.59 803.73C1333.86 799.923 1338.55 796.603 1343.55 793.83C1345.24 792.476 1346.9 791.088 1348.52 789.666L1349.16 791.085C1360.84 785.816 1373.65 783.544 1386.44 784.473C1399.22 785.402 1411.57 789.503 1422.37 796.406C1433.17 803.309 1442.08 812.796 1448.29 824.007C1454.5 835.219 1457.82 847.802 1457.95 860.619C1457.91 875.579 1453.48 890.198 1445.2 902.66C1436.93 915.123 1425.17 924.879 1411.4 930.717L1412.15 932.391C1378.75 953.228 1341.54 967.204 1302.69 973.505C1263.83 979.807 1224.12 978.306 1185.85 969.091C1147.58 959.876 1111.53 943.131 1079.81 919.834C1048.08 896.537 1021.31 867.154 1001.06 833.4C828.3 917.472 704.142 1084.15 682.038 1281.64C682.038 1281.64 668.313 1357.73 588.513 1357.73C564.839 1357.86 542.082 1348.58 525.248 1331.93C508.414 1315.29 498.881 1292.64 498.747 1268.96C498.747 1254.67 502.482 1200.65 508.551 1188.69C549.342 929.244 724.8 745.74 962.1 654.426C977.874 508.053 1103.12 394.026 1255.34 394.026C1311.54 393.904 1366.61 409.844 1414.06 439.969C1461.51 470.094 1499.36 513.149 1523.16 564.066L1522.88 564.267C1527.49 574.189 1529.88 584.995 1529.89 595.935V595.935ZM1759.15 1944.22C1743.5 1934.96 1731.62 1920.48 1725.61 1903.32C1719.6 1886.16 1719.84 1867.43 1726.29 1850.43C1732.74 1833.43 1744.99 1819.26 1760.87 1810.41C1776.76 1801.56 1795.25 1798.61 1813.1 1802.06C1838.6 1802.8 1863.82 1796.61 1886.08 1784.15C1908.33 1771.7 1926.8 1753.44 1939.5 1731.32C1978.45 1663.85 1955.95 1577.93 1889.24 1539.41C1822.53 1500.9 1736.87 1524.37 1697.92 1591.84C1684.78 1614.6 1678.35 1640.6 1679.36 1666.86C1680.52 1672.46 1681.05 1678.18 1680.95 1683.9C1681.27 1686.04 1681.65 1688.17 1682.07 1690.29L1680.52 1690.13C1679.24 1702.88 1674.8 1715.11 1667.61 1725.72C1660.41 1736.32 1650.69 1744.96 1639.31 1750.87C1627.93 1756.77 1615.27 1759.74 1602.45 1759.51C1589.64 1759.29 1577.08 1755.87 1565.92 1749.58C1552.99 1742.06 1542.54 1730.92 1535.89 1717.52C1529.23 1704.12 1526.66 1689.07 1528.49 1674.22L1526.67 1674.03C1525.32 1634.69 1531.82 1595.48 1545.78 1558.68C1559.75 1521.88 1580.91 1488.23 1608.02 1459.69C1635.13 1431.16 1667.66 1408.31 1703.7 1392.48C1739.74 1376.65 1778.57 1368.16 1817.92 1367.5C1831.49 1175.84 1749.22 984.975 1589.25 867.096C1589.25 867.096 1530.23 817.164 1570.13 748.056C1575.93 737.871 1583.69 728.93 1592.95 721.741C1602.21 714.553 1612.79 709.258 1624.1 706.161C1635.4 703.063 1647.21 702.222 1658.84 703.687C1670.47 705.151 1681.7 708.892 1691.88 714.696C1704.26 721.842 1749.18 752.091 1756.5 763.323C1960.8 928.377 2031.98 1172.07 1992.4 1423.26C2111.27 1510.11 2147.39 1675.59 2071.29 1807.42C2043.29 1856.15 2001.95 1895.87 1952.13 1921.9C1902.31 1947.93 1846.1 1959.18 1790.1 1954.34L1790.06 1953.99C1779.17 1953.01 1768.62 1949.68 1759.15 1944.22V1944.22ZM464.472 1473.12C480.312 1464.19 498.796 1461.15 516.662 1464.52C534.529 1467.89 550.63 1477.47 562.126 1491.55C573.621 1505.64 579.772 1523.34 579.494 1541.52C579.215 1559.7 572.525 1577.19 560.604 1590.92C547.219 1612.63 539.97 1637.57 539.629 1663.07C539.289 1688.57 545.869 1713.69 558.669 1735.76C597.624 1803.23 683.28 1826.7 750 1788.18C816.72 1749.66 839.214 1663.74 800.262 1596.27C787.12 1573.52 767.815 1554.95 744.573 1542.69C739.133 1540.89 733.91 1538.5 729 1535.54C726.984 1534.76 724.954 1534.02 722.91 1533.32L723.81 1532.06C713.405 1524.58 705.03 1514.62 699.442 1503.08C693.855 1491.55 691.232 1478.8 691.81 1466C692.388 1453.19 696.149 1440.73 702.753 1429.75C709.357 1418.76 718.596 1409.6 729.633 1403.08C742.606 1395.63 757.482 1392.16 772.412 1393.1C787.342 1394.03 801.667 1399.33 813.609 1408.34L814.686 1406.84C849.429 1425.35 880.138 1450.58 905.023 1481.08C929.908 1511.58 948.469 1546.72 959.624 1584.47C970.779 1622.22 974.304 1661.81 969.994 1700.94C965.683 1740.06 953.623 1777.94 934.518 1812.35C1093.71 1919.93 1300.13 1944.12 1482.21 1864.52C1482.21 1864.52 1554.96 1838.37 1594.86 1907.48C1606.81 1927.91 1610.16 1952.26 1604.16 1975.16C1598.16 1998.06 1583.31 2017.65 1562.87 2029.6C1550.5 2036.74 1501.84 2060.52 1488.46 2061.25C1243.37 2155.65 996.732 2095.45 798.996 1935.58C664.35 1995.11 502.98 1943.65 426.873 1811.82C398.665 1763.21 384.935 1707.55 387.299 1651.39C389.663 1595.24 408.023 1540.92 440.217 1494.85L440.532 1495C446.83 1486.05 454.999 1478.59 464.472 1473.12V1473.12Z" fill="white"></path></svg>